<?xml version="1.0" encoding="UTF-8"?>
<svg width="238px" height="50px" viewBox="0 0 238 50" version="1.1" 
    xmlns="http://www.w3.org/2000/svg" 
    xmlns:xlink="http://www.w3.org/1999/xlink">
    <g stroke="none" stroke-width="1" fill="none" fill-rule="evenodd">
        <g transform="translate(-83.000000, -18.000000)">
            <g transform="translate(66.000000, 14.000000)">
                <g transform="translate(17.000000, 0.000000)">
                    <g>
                        <g transform="translate(0.000000, 4.000000)" fill="#FFFFFF" fill-rule="nonzero">
                            <path d="M40.725,25.415 L29.775,25.415 C29.1375,25.415 28.6875,25.875 28.6875,26.5266667 L28.6875,31.1266667 C28.6875,31.7016667 29.1375,32.1616667 29.775,32.1616667 L34.35,32.1616667 L34.35,37.1066667 C33.225,37.5666667 30.75,38.5633333 27.5625,38.5633333 C20.3625,38.5633333 14.7375,32.43 14.7375,25.2233333 C14.7375,17.94 20.3625,11.6916667 27.4875,11.6916667 C30.6375,11.6916667 33.6375,12.8416667 36.1125,15.065 C36.6375,15.525 37.125,15.525 37.6125,15.065 L41.1375,11.27 C41.5875,10.81 41.55,10.12 41.0625,9.62166667 C37.2,6.24833333 32.2875,4.21666667 27.15,4.21666667 C15.825,4.21666667 6.675,13.6083333 6.675,25.2616667 C6.675,36.915 15.7875,46.115 27.15,46.115 C35.4,46.115 41.2875,42.32 41.2875,42.32 C41.5125,42.1283333 41.7375,41.86 41.7375,41.4 L41.7375,26.4883333 C41.775,25.9516667 41.2875,25.415 40.725,25.415 Z M26.7,6.17166667 C26.7,6.01833333 26.8125,5.865 27,5.865 L29.025,5.865 C29.175,5.865 29.325,5.98 29.325,6.17166667 L29.325,8.24166667 C29.325,8.395 29.2125,8.54833333 29.025,8.54833333 L27,8.54833333 C26.85,8.54833333 26.7,8.43333333 26.7,8.24166667 L26.7,6.17166667 Z M20.5125,6.86166667 C20.5125,6.70833333 20.625,6.555 20.8125,6.555 L22.8375,6.555 C22.9875,6.555 23.1375,6.67 23.1375,6.86166667 L23.1375,8.93166667 C23.1375,9.085 23.025,9.23833333 22.8375,9.23833333 L20.8125,9.23833333 C20.6625,9.23833333 20.5125,9.12333333 20.5125,8.93166667 L20.5125,6.86166667 Z M17.8875,10.925 C17.8875,10.7716667 18,10.6183333 18.1875,10.6183333 L20.2125,10.6183333 C20.3625,10.6183333 20.5125,10.7333333 20.5125,10.925 L20.5125,12.995 C20.5125,13.1483333 20.4,13.3016667 20.2125,13.3016667 L18.1875,13.3016667 C18.0375,13.3016667 17.8875,13.1866667 17.8875,12.995 L17.8875,10.925 Z M14.3625,9.58333333 C14.3625,9.43 14.475,9.27666667 14.6625,9.27666667 L16.6875,9.27666667 C16.8375,9.27666667 16.9875,9.39166667 16.9875,9.58333333 L16.9875,11.6533333 C16.9875,11.8066667 16.875,11.96 16.6875,11.96 L14.6625,11.96 C14.5125,11.96 14.3625,11.845 14.3625,11.6533333 L14.3625,9.58333333 Z M13.05,14.2983333 C13.05,14.145 13.1625,13.9916667 13.35,13.9916667 L15.375,13.9916667 C15.525,13.9916667 15.675,14.1066667 15.675,14.2983333 L15.675,16.3683333 C15.675,16.5216667 15.5625,16.675 15.375,16.675 L13.35,16.675 C13.2,16.675 13.05,16.56 13.05,16.3683333 L13.05,14.2983333 Z M9.7125,16.9816667 C9.7125,16.8283333 9.825,16.675 10.0125,16.675 L12.0375,16.675 C12.1875,16.675 12.3375,16.79 12.3375,16.9816667 L12.3375,19.0516667 C12.3375,19.205 12.225,19.3583333 12.0375,19.3583333 L10.0125,19.3583333 C9.8625,19.3583333 9.7125,19.2433333 9.7125,19.0516667 L9.7125,16.9816667 Z M10.125,24.8783333 C10.125,25.0316667 10.0125,25.185 9.825,25.185 L7.8,25.185 C7.65,25.185 7.5,25.07 7.5,24.8783333 L7.5,22.8083333 C7.5,22.655 7.6125,22.5016667 7.8,22.5016667 L9.825,22.5016667 C9.975,22.5016667 10.125,22.6166667 10.125,22.8083333 L10.125,24.8783333 Z M11.025,29.9383333 L11.025,27.8683333 C11.025,27.715 11.1375,27.5616667 11.325,27.5616667 L13.35,27.5616667 C13.5,27.5616667 13.65,27.6766667 13.65,27.8683333 L13.65,29.9383333 C13.65,30.0916667 13.5375,30.245 13.35,30.245 L11.325,30.245 C11.175,30.245 11.025,30.0916667 11.025,29.9383333 Z M14.2875,36.1866667 C14.2875,36.34 14.175,36.4933333 13.9875,36.4933333 L11.9625,36.4933333 C11.8125,36.4933333 11.6625,36.3783333 11.6625,36.1866667 L11.6625,34.1166667 C11.6625,33.9633333 11.775,33.81 11.9625,33.81 L13.9875,33.81 C14.1375,33.81 14.2875,33.925 14.2875,34.1166667 L14.2875,36.1866667 Z M15.3,5.36666667 L13.275,5.36666667 C13.125,5.36666667 12.975,5.25166667 12.975,5.06 L12.975,2.99 C12.975,2.83666667 13.0875,2.68333333 13.275,2.68333333 L15.3,2.68333333 C15.45,2.68333333 15.6,2.79833333 15.6,2.99 L15.6,5.06 C15.6,5.21333333 15.4875,5.36666667 15.3,5.36666667 Z M3.9375,2.37666667 L3.9375,0.306666667 C3.9375,0.153333333 3.825,0 3.6375,0 L1.6125,0 C1.4625,0 1.3125,0.115 1.3125,0.306666667 L1.3125,2.37666667 C1.3125,2.53 1.425,2.68333333 1.6125,2.68333333 L3.6375,2.68333333 C3.7875,2.68333333 3.9375,2.53 3.9375,2.37666667 Z M3.9375,7.82 L3.9375,5.75 C3.9375,5.59666667 3.825,5.44333333 3.6375,5.44333333 L1.6125,5.44333333 C1.4625,5.44333333 1.3125,5.55833333 1.3125,5.75 L1.3125,7.82 C1.3125,7.97333333 1.425,8.12666667 1.6125,8.12666667 L3.6375,8.12666667 C3.7875,8.08833333 3.9375,7.97333333 3.9375,7.82 Z M8.1375,12.535 L8.1375,10.465 C8.1375,10.3116667 8.025,10.1583333 7.8375,10.1583333 L5.8125,10.1583333 C5.6625,10.1583333 5.5125,10.2733333 5.5125,10.465 L5.5125,12.535 C5.5125,12.6883333 5.625,12.8416667 5.8125,12.8416667 L7.8375,12.8416667 C7.9875,12.8416667 8.1375,12.6883333 8.1375,12.535 Z M9.375,7.85833333 L9.375,5.78833333 C9.375,5.635 9.2625,5.48166667 9.075,5.48166667 L7.05,5.48166667 C6.9,5.48166667 6.75,5.59666667 6.75,5.78833333 L6.75,7.85833333 C6.75,8.01166667 6.8625,8.165 7.05,8.165 L9.075,8.165 C9.2625,8.165 9.375,8.01166667 9.375,7.85833333 Z M13.0125,9.2 L13.0125,7.16833333 C13.0125,7.015 12.9,6.86166667 12.7125,6.86166667 L10.6875,6.86166667 C10.5375,6.86166667 10.3875,6.97666667 10.3875,7.16833333 L10.3875,9.23833333 C10.3875,9.39166667 10.5,9.545 10.6875,9.545 L12.7125,9.545 C12.9,9.50666667 13.0125,9.39166667 13.0125,9.2 Z M6.1125,26.0666667 L6.1125,24.035 C6.1125,23.8816667 6,23.7283333 5.8125,23.7283333 L3.825,23.7283333 C3.675,23.7283333 3.525,23.8433333 3.525,24.035 L3.525,26.105 C3.525,26.2583333 3.6375,26.4116667 3.825,26.4116667 L5.85,26.4116667 C6,26.3733333 6.1125,26.2583333 6.1125,26.0666667 Z M6.825,32.3533333 L6.825,30.2833333 C6.825,30.13 6.7125,29.9766667 6.525,29.9766667 L4.5,29.9766667 C4.35,29.9766667 4.2,30.0916667 4.2,30.2833333 L4.2,32.3533333 C4.2,32.5066667 4.3125,32.66 4.5,32.66 L6.525,32.66 C6.675,32.66 6.825,32.5066667 6.825,32.3533333 Z M2.625,21.0833333 L2.625,19.0133333 C2.625,18.86 2.5125,18.7066667 2.325,18.7066667 L0.3,18.7066667 C0.15,18.7066667 0,18.8216667 0,19.0133333 L0,21.0833333 C0,21.2366667 0.1125,21.39 0.3,21.39 L2.325,21.39 C2.5125,21.3516667 2.625,21.2366667 2.625,21.0833333 Z M4.8,15.18 L4.8,13.11 C4.8,12.9566667 4.6875,12.8033333 4.5,12.8033333 L2.475,12.8033333 C2.325,12.8033333 2.175,12.9183333 2.175,13.11 L2.175,15.18 C2.175,15.3333333 2.2875,15.4866667 2.475,15.4866667 L4.5,15.4866667 C4.65,15.4866667 4.8,15.3333333 4.8,15.18 Z M21.4875,4.715 L19.4625,4.715 C19.3125,4.715 19.1625,4.6 19.1625,4.40833333 L19.1625,2.33833333 C19.1625,2.185 19.275,2.03166667 19.4625,2.03166667 L21.4875,2.03166667 C21.6375,2.03166667 21.7875,2.14666667 21.7875,2.33833333 L21.7875,4.40833333 C21.7875,4.56166667 21.675,4.715 21.4875,4.715 Z"></path>
                        </g>
                        <text font-family="Montserrat-Bold, Montserrat, sans-serif" font-size="36" font-weight="bold" letter-spacing="1.66499996" fill="#FFFFFF">
                            <tspan x="44" y="46">atherings</tspan>
                        </text>
                        <text font-family="Montserrat-Bold, Montserrat, sans-serif" font-size="20" font-weight="bold" letter-spacing="0.925000012" fill="#FFFFFF">
                            <tspan x="45" y="19">the</tspan>
                        </text>
                    </g>
                </g>
            </g>
        </g>
    </g>
</svg>